<?xml version="1.0" encoding="UTF-8"?>
<svg version="1.1" xmlns="http://www.w3.org/2000/svg" width="616" height="648">
<path d="M0 0 C203.28 0 406.56 0 616 0 C616 213.84 616 427.68 616 648 C412.72 648 209.44 648 0 648 C0 434.16 0 220.32 0 0 Z " fill="#FDFEFE" transform="translate(0,0)"/>
<path d="M0 0 C0.66 0 1.32 0 2 0 C1.99962297 1.18975811 1.99924595 2.37951622 1.9988575 3.60532761 C1.99123487 31.88218221 2.01458284 60.15889624 2.07579029 88.43568502 C2.08330585 91.92017628 2.09056143 95.40466802 2.09765625 98.88916016 C2.099073 99.58282567 2.10048975 100.27649119 2.10194944 100.99117687 C2.12423505 112.20575214 2.12548578 123.42023529 2.11888863 134.63482651 C2.11258447 146.15206451 2.12950228 157.66907486 2.16643608 169.18625951 C2.18643822 175.65115209 2.19602563 182.11567645 2.18042374 188.58058929 C2.16605804 194.67104756 2.17989435 200.76080344 2.21495247 206.85117149 C2.22289238 209.08112272 2.22070816 211.31113771 2.20739174 213.54106331 C2.08984897 231.63783642 2.08984897 231.63783642 10.8085041 247.114254 C18.98149791 255.05256097 28.41457518 256.59556422 39.41052246 256.50793457 C40.6248261 256.51417453 41.83912974 256.5204145 43.09023046 256.52684355 C46.43491962 256.53997055 49.77870107 256.53533859 53.12333369 256.52289867 C56.74031888 256.51380786 60.35722764 256.52783778 63.97419739 256.53881836 C71.04955964 256.55656539 78.12475176 256.5527807 85.20012057 256.5411678 C90.95257561 256.53211867 96.70498311 256.53091586 102.45744324 256.53526306 C103.68750348 256.53618246 103.68750348 256.53618246 104.94241342 256.53712043 C106.60852978 256.53839939 108.27464613 256.53969624 109.94076246 256.5410108 C125.54842351 256.55240541 141.15599044 256.53932048 156.76363605 256.51780933 C170.14341516 256.49993936 183.52305543 256.50304378 196.90283203 256.52148438 C212.45625483 256.54291088 228.00959522 256.55130688 243.56303072 256.53903532 C245.22287272 256.53776118 246.88271474 256.5365037 248.54255676 256.53526306 C249.76743239 256.53433741 249.76743239 256.53433741 251.01705298 256.53339306 C256.7597765 256.52994549 262.50244757 256.53575567 268.24516296 256.54518127 C275.2476906 256.55642245 282.25003898 256.55331686 289.25254619 256.5320583 C292.82247457 256.52157621 296.39210453 256.51737704 299.96203041 256.53065491 C303.83801332 256.54485263 307.71351208 256.52785206 311.58947754 256.50793457 C312.70913957 256.51685746 313.8288016 256.52578034 314.98239279 256.53497362 C324.18922882 256.4433631 332.4968001 254.30480133 339.3984375 247.91015625 C344.41000449 241.93294586 348.10864501 234.78968073 348.1386652 226.91581345 C348.14413964 226.10666827 348.14961409 225.29752309 348.15525442 224.46385837 C348.15623253 223.58059162 348.15721064 222.69732488 348.15821838 221.78729248 C348.16562535 220.37334037 348.16562535 220.37334037 348.17318195 218.93082356 C348.18856898 215.76475657 348.19692087 212.59870987 348.20532227 209.43261719 C348.21489984 207.16604432 348.22490985 204.89947324 348.23532104 202.63290405 C348.26238924 196.47219181 348.28338846 190.31147189 348.30332303 184.15073299 C348.32517075 177.71515944 348.35256538 171.27960961 348.37937927 164.84405518 C348.42364445 154.03992705 348.46447693 143.23579169 348.50268555 132.43164062 C348.54204977 121.30337576 348.58347822 110.17512173 348.62768555 99.046875 C348.63177196 98.01793787 348.63177196 98.01793787 348.63594092 96.96821412 C348.64962055 93.52696014 348.66334079 90.08570632 348.67708123 86.64445257 C348.79101729 58.09632444 348.89775995 29.54817228 349 1 C349.69512664 1.27962208 350.39025328 1.55924416 351.10644436 1.84733963 C353.06268091 2.6266149 355.02839347 3.38244813 357.00206852 4.116436 C366.08400676 7.77181737 375.6111259 12.46015816 381 21 C386.39008263 34.47332742 384.30886674 51.40573379 383.86936259 65.57687473 C383.71416633 71.48198022 383.71125754 77.38729823 383.69032288 83.29412842 C383.63440126 93.20530135 383.48088293 103.11079365 383.2565918 113.01953125 C382.94120622 126.9590865 382.80270644 140.89627218 382.69964206 154.83878946 C382.61323317 165.71058604 382.48177172 176.58192848 382.33984375 187.453125 C382.32495557 188.61053475 382.31006738 189.76794451 382.29472804 190.96042728 C382.20542026 197.63293159 382.0925361 204.30435678 381.94635201 210.97586441 C381.90461053 212.98879909 381.86898211 215.00187211 381.8401947 217.01503372 C381.52625194 238.11531092 377.10512111 257.06394238 361.76171875 272.44140625 C358.07913855 275.8531319 354.38285437 278.56936773 350 281 C349.2678125 281.43699219 348.535625 281.87398438 347.78125 282.32421875 C331.8611474 291.15987569 314.68156059 290.59321583 297.01459789 290.53755772 C293.37714662 290.53049229 289.73978099 290.5466185 286.10235596 290.55955505 C278.99773683 290.5810779 271.89327859 290.58109865 264.78863764 290.57292951 C259.00920223 290.56660291 253.22981338 290.56779078 247.45037842 290.57420158 C246.62455745 290.57510324 245.79873648 290.57600489 244.94789064 290.57693387 C243.26970687 290.57878526 241.59152312 290.58064783 239.91333938 290.58252143 C224.21534188 290.59905869 208.51743455 290.59041508 192.81944251 290.57353585 C178.48843419 290.55883862 164.15763553 290.57347483 149.8266542 290.60230602 C135.07260568 290.6317649 120.31865371 290.64265367 105.5645771 290.63312382 C103.89292528 290.63210137 102.22127344 290.63110676 100.54962158 290.6301403 C99.7273597 290.62966391 98.90509782 290.62918752 98.05791891 290.6286967 C92.29237953 290.62654134 86.5269325 290.63628943 80.76141357 290.65091133 C73.72514112 290.66850888 66.68913583 290.66821148 59.65287352 290.64555968 C56.06994515 290.63448499 52.48748618 290.63109874 48.90457916 290.64986038 C27.50397545 290.75355067 6.14265015 289.25641903 -10.39453125 273.69921875 C-17.61511483 266.05699525 -23.09368436 257.80181664 -27 248 C-27.33432824 247.17702612 -27.66865648 246.35405224 -28.01311588 245.50613976 C-31.74148785 235.06147852 -31.61474356 224.96410165 -31.62866211 213.99072266 C-31.6455698 211.8918023 -31.66405102 209.79289413 -31.68397522 207.69400024 C-31.73185194 202.02918247 -31.75379783 196.3645669 -31.76782298 190.69957399 C-31.77736251 187.15709576 -31.79182133 183.61467055 -31.80783272 180.07221603 C-31.86268146 167.70584178 -31.89376753 155.33963066 -31.90600586 142.97314453 C-31.91814277 131.45437472 -31.98689195 119.93684226 -32.08073229 108.41847575 C-32.15861186 98.51326633 -32.19428088 88.60847055 -32.19765478 78.70295751 C-32.20054361 72.79298375 -32.22110068 66.88434263 -32.28529167 60.97468948 C-32.34435147 55.423677 -32.35100115 49.87504964 -32.31735802 44.32384872 C-32.31399821 42.28844613 -32.32942964 40.25291211 -32.36509323 38.21781921 C-32.61851608 22.83894463 -32.61851608 22.83894463 -28.64590645 18.32529831 C-25.82003294 16.50356424 -23.10928014 15.25887356 -20 14 C-18.2425809 12.87503341 -16.50633659 11.71548054 -14.8046875 10.5078125 C-13.98742187 9.94835937 -13.17015625 9.38890625 -12.328125 8.8125 C-11.51859375 8.255625 -10.7090625 7.69875 -9.875 7.125 C-9.02679688 6.54492188 -8.17859375 5.96484375 -7.3046875 5.3671875 C-3.47952653 2.89908311 -3.47952653 2.89908311 0 0 Z " fill="#3E92C6" transform="translate(127,223)"/>
<path d="M0 0 C6.36848181 2.2273771 11.76065702 6.46825833 17.1875 10.375 C23.93604995 15.16419315 30.72407229 19.87050777 37.625 24.4375 C50.52682181 32.98827836 63.33268325 41.67975834 76.14654541 50.36148071 C80.84547124 53.54409644 85.54861982 56.7203713 90.25495911 59.89201355 C93.41089153 62.01883801 96.56576759 64.14722673 99.72061157 66.27566528 C101.23374346 67.29586596 102.74739093 68.31530236 104.26156616 69.33395386 C106.36323374 70.74797999 108.46305715 72.16470494 110.5625 73.58203125 C111.18792191 74.00177216 111.81334381 74.42151306 112.4577179 74.85397339 C114.82216327 76.45324488 116.976176 77.976176 119 80 C119.17532289 82.86888581 119.23137614 85.63992645 119.1953125 88.5078125 C119.19106766 89.76874222 119.19106766 89.76874222 119.18673706 91.05514526 C119.1755243 93.74524046 119.15041803 96.4350051 119.125 99.125 C119.1149716 100.94660978 119.10584551 102.76822477 119.09765625 104.58984375 C119.07558142 109.06002358 119.04104434 113.52995571 119 118 C114.51423043 116.45312786 110.81100425 114.0216971 106.9296875 111.35546875 C106.232491 110.8822821 105.53529449 110.40909546 104.81697083 109.92156982 C102.50005651 108.34779994 100.18763346 106.76755225 97.875 105.1875 C96.23710566 104.07375488 94.59883279 102.96056624 92.96020508 101.84790039 C89.46630545 99.4751451 85.97375569 97.10042081 82.48193359 94.72460938 C74.15595547 89.06351819 65.80797054 83.43501926 57.45983887 77.80667114 C54.69587197 75.94314456 51.93239482 74.07889332 49.16894531 72.21459961 C38.57105033 65.06727254 27.96784105 57.9281731 17.30029297 50.88500977 C13.4263717 48.32173516 9.59305986 45.73576004 5.85546875 42.9765625 C5.24364746 42.52958008 4.63182617 42.08259766 4.00146484 41.62207031 C2.48442972 40.50194666 0.9851284 39.35789922 -0.51171875 38.2109375 C-2.94271363 36.70586644 -2.94271363 36.70586644 -5.55078125 37.5859375 C-8.01811847 39.01046074 -10.23862662 40.51628041 -12.5 42.25 C-17.78622818 46.17408927 -23.20222824 49.85990341 -28.6875 53.5 C-29.59935059 54.10545654 -30.51120117 54.71091309 -31.45068359 55.3347168 C-33.35617103 56.5986409 -35.26210294 57.86189515 -37.16845703 59.12451172 C-55.29558386 71.1311153 -73.32892834 83.27494839 -91.34619141 95.44555664 C-100.29277436 101.48737509 -109.25137208 107.50968142 -118.23921204 113.48995972 C-126.46911849 118.9702223 -134.65978081 124.50840514 -142.85247803 130.04406738 C-158.63310336 140.7057011 -174.43705446 151.33041119 -190.30688477 161.85888672 C-197.17191859 166.41742772 -203.98316653 171.04013658 -210.74902344 175.74511719 C-215.86899476 179.29633791 -221.01972362 182.80189831 -226.17456055 186.30224609 C-227.93457007 187.49800939 -229.69287146 188.69625673 -231.45117188 189.89453125 C-234.36111547 191.87451291 -237.27967325 193.84117095 -240.20523071 195.79800415 C-241.43571511 196.62208619 -242.66428055 197.44903869 -243.89120483 198.27841187 C-245.76729111 199.54338304 -247.65189033 200.79461392 -249.5390625 202.04296875 C-250.10684921 202.4287207 -250.67463593 202.81447266 -251.2596283 203.21191406 C-255.44716185 205.95208347 -258.83066074 207.09073408 -263.81640625 206.55859375 C-268.93885348 205.24820027 -272.06885797 203.20068314 -275.375 198.9375 C-277.92814785 194.32219427 -278.67782029 190.22320344 -278 185 C-273.20212245 174.77843478 -259.96524928 168.51785012 -250.8218689 162.47265625 C-248.44782942 160.90300624 -246.07673627 159.3289899 -243.70629883 157.75390625 C-239.60561978 155.02995564 -235.50264651 152.30948439 -231.39898682 149.59002686 C-224.82457895 145.23256853 -218.25392212 140.86948294 -211.6875 136.5 C-210.99725739 136.04082184 -210.30701477 135.58164368 -209.59585571 135.10855103 C-201.22785597 129.53787619 -192.91540933 123.90156393 -184.6875 118.125 C-174.56065717 111.01618131 -164.28222176 104.1489074 -153.9772644 97.30255127 C-140.86402724 88.59011615 -127.79641873 79.81216201 -114.75 71 C-102.69381995 62.85774265 -90.629324 54.73058678 -78.51123047 46.68066406 C-71.92901887 42.30191441 -65.37816117 37.87852439 -58.83740234 33.43823242 C-56.21245293 31.65627957 -53.58517125 29.87785867 -50.95556641 28.1027832 C-44.86332906 23.98829388 -38.78311276 19.86034706 -32.75033569 15.65896606 C-30.03566656 13.77280373 -27.30987722 11.90313896 -24.58209229 10.03601074 C-23.29183662 9.1469757 -22.0066387 8.25054881 -20.72698975 7.34631348 C-7.46383964 -2.01771713 -7.46383964 -2.01771713 0 0 Z " fill="#97C561" transform="translate(306,38)"/>
<path d="M0 0 C0.84137512 -0.01283524 1.68275024 -0.02567047 2.54962158 -0.03889465 C3.46104919 -0.04628159 4.37247681 -0.05366852 5.31152344 -0.0612793 C6.24889343 -0.06935104 7.18626343 -0.07742279 8.15203857 -0.08573914 C10.13926338 -0.09958491 12.12651203 -0.11030485 14.11376953 -0.11816406 C17.14499389 -0.13535117 20.17512033 -0.17922969 23.20605469 -0.22338867 C25.13703625 -0.23351788 27.06802709 -0.24203327 28.99902344 -0.2487793 C29.90235413 -0.26628738 30.80568481 -0.28379547 31.73638916 -0.30183411 C37.27332541 -0.28286573 40.60952537 0.35013309 44.92089844 4.17700195 C47.29342625 7.70347364 47.0663626 10.63556097 46.85888672 14.80297852 C46.79980257 16.16607832 46.74167073 17.52921964 46.68435669 18.89239502 C46.65123508 19.61252022 46.61811348 20.33264542 46.58398819 21.07459259 C46.39129843 25.73316719 46.32396165 30.39566938 46.23282051 35.05713272 C46.14595824 39.13731831 46.01689835 43.20734245 45.79296875 47.2824707 C44.30375236 64.96297641 44.30375236 64.96297641 50.01754761 81.05337524 C55.52329673 86.14077375 61.92310589 89.36520132 68.65563965 92.54998779 C73.77112322 95.09893253 78.33435177 98.34889671 83.00292969 101.6262207 C84.79541647 102.84011073 86.59033469 104.0504183 88.38769531 105.25708008 C89.2693335 105.85206299 90.15097168 106.4470459 91.05932617 107.06005859 C93.75146796 108.87669513 96.44454185 110.69194378 99.13769531 112.50708008 C102.67100473 114.88894475 106.20073468 117.27598379 109.72802734 119.66674805 C113.23990127 122.04630467 116.76429685 124.40570111 120.29736328 126.75366211 C122.00921848 127.90113083 123.72097384 129.0487485 125.43261719 130.1965332 C126.21522415 130.71108566 126.99783112 131.22563812 127.80415344 131.75578308 C132.85470696 135.16074162 137.13671398 138.60863304 139.92089844 144.17700195 C140.46450289 149.13182289 140.48526918 153.04826047 138.23339844 157.55200195 C135.00823309 161.21300046 131.6858835 164.74786847 126.70605469 165.52075195 C121.09265361 165.84289836 117.46841758 165.32132758 112.76855469 162.13793945 C111.81424561 161.50017578 110.85993652 160.86241211 109.87670898 160.20532227 C108.41358276 159.20130371 108.41358276 159.20130371 106.92089844 158.17700195 C105.98866455 157.55148438 105.05643066 156.9259668 104.09594727 156.28149414 C101.15281611 154.30236561 98.22329844 152.30431726 95.29589844 150.30200195 C93.635816 149.17001571 91.97573202 148.03803173 90.31555176 146.90618896 C88.61624179 145.74733549 86.91742708 144.58775945 85.21875 143.42797852 C70.0666949 133.08581476 54.88549197 122.78646849 39.6907959 112.50708008 C38.02065679 111.37698741 36.35081266 110.24645868 34.68127441 109.11547852 C32.32972973 107.52271337 29.9770275 105.93167259 27.62402344 104.34106445 C26.91987305 103.86367828 26.21572266 103.38629211 25.49023438 102.8944397 C24.82958984 102.44837372 24.16894531 102.00230774 23.48828125 101.54272461 C22.9174884 101.15653961 22.34669556 100.77035461 21.75860596 100.37246704 C19.84015234 99.06049669 19.84015234 99.06049669 17.2334137 97.94630432 C14.92089844 96.17700195 14.92089844 96.17700195 14.31962585 93.19673157 C14.33072891 91.97761581 14.34183197 90.75850006 14.35327148 89.50244141 C14.35254135 88.82900696 14.35181122 88.15557251 14.35105896 87.46173096 C14.35454092 85.23709379 14.39342414 83.01455416 14.43261719 80.7902832 C14.44194332 79.24758549 14.44906038 77.70487297 14.45405579 76.16215515 C14.47314184 72.10276362 14.52225507 68.0442674 14.57757568 63.98522949 C14.62873436 59.84289665 14.65156251 55.70041906 14.67675781 51.55786133 C14.73037382 43.43045164 14.81832143 35.30394133 14.92089844 27.17700195 C6.34089844 27.17700195 -2.23910156 27.17700195 -11.07910156 27.17700195 C-11.18222656 24.00075195 -11.28535156 20.82450195 -11.39160156 17.55200195 C-11.45988159 16.06772705 -11.45988159 16.06772705 -11.52954102 14.5534668 C-11.59854131 10.14902233 -11.53645709 7.09543946 -8.68457031 3.59106445 C-5.51610588 0.65536577 -4.16982338 0.05536993 0 0 Z " fill="#97C462" transform="translate(436.0791015625,78.822998046875)"/>
<path d="M0 0 C0.6461879 -0.0087616 1.29237579 -0.01752319 1.95814514 -0.02655029 C4.08281674 -0.04846176 6.2053874 -0.03402484 8.33007812 -0.01708984 C9.81311439 -0.02046045 11.29614796 -0.02531511 12.7791748 -0.03158569 C15.88283669 -0.03894569 18.9857776 -0.02828105 22.08935547 -0.00488281 C26.06101619 0.02360611 30.03098759 0.00719721 34.00258636 -0.02274513 C37.06366629 -0.04084271 40.12434791 -0.03504918 43.18544006 -0.02210617 C44.6494212 -0.01877887 46.1134389 -0.02283551 47.57737732 -0.03450394 C49.62677287 -0.04725532 51.6734616 -0.02778482 53.72265625 0 C54.88671997 0.00397797 56.05078369 0.00795593 57.25012207 0.01205444 C61.39596978 0.85811676 62.86030264 2.26984369 65.36132812 5.64697266 C65.98951721 8.72021484 65.98951721 8.72021484 65.99243164 12.19384766 C66.00496475 13.49870117 66.01749786 14.80355469 66.03041077 16.14794922 C66.01814209 17.56430054 66.00472201 18.98064229 65.99023438 20.39697266 C65.99106359 21.85758643 65.99352498 23.31820011 65.99754333 24.77880859 C66.00039761 27.83541048 65.98573806 30.89127809 65.95825195 33.94775391 C65.92416841 37.85871325 65.93019011 41.76836014 65.94891453 45.67938232 C65.95950137 48.69412099 65.9505317 51.70855613 65.93552971 54.7232666 C65.9303597 56.16490781 65.93081536 57.60658088 65.93707466 59.04821777 C65.9425461 61.06555292 65.91925703 63.08290364 65.89477539 65.10009766 C65.88857681 66.24639648 65.88237823 67.39269531 65.87599182 68.57373047 C65.25246973 72.29700532 63.96641869 73.96508571 61.36132812 76.64697266 C58.60019283 78.0275403 56.33689061 77.80483701 53.24682617 77.83984375 C51.31923714 77.86393814 51.31923714 77.86393814 49.35270691 77.88851929 C47.94282695 77.90000616 46.5329396 77.9106148 45.12304688 77.92041016 C44.41400522 77.92573383 43.70496357 77.93105751 42.97443581 77.93654251 C39.22100531 77.96326887 35.46760801 77.98264478 31.71411133 77.99707031 C27.84008417 78.01371185 23.96690881 78.05848521 20.09320354 78.10944176 C17.11201519 78.14312404 14.13102873 78.15464868 11.14966774 78.16029739 C9.72190661 78.16700797 8.29415867 78.18222539 6.86658287 78.2061882 C4.86596066 78.23785217 2.86488159 78.23487391 0.86401367 78.23046875 C-0.27356888 78.2385556 -1.41115143 78.24664246 -2.58320618 78.25497437 C-6.5866315 77.45833985 -8.06603347 75.73560985 -10.63867188 72.64697266 C-12.01923952 69.88583736 -11.79653623 67.62253514 -11.83154297 64.5324707 C-11.8476059 63.24741135 -11.86366882 61.96235199 -11.88021851 60.63835144 C-11.89170538 59.22847148 -11.90231402 57.81858413 -11.91210938 56.40869141 C-11.91743305 55.69964975 -11.92275673 54.9906081 -11.92824173 54.26008034 C-11.95496809 50.50664984 -11.974344 46.75325254 -11.98876953 42.99975586 C-12.00541106 39.12572871 -12.05018443 35.25255335 -12.10114098 31.37884808 C-12.13482326 28.39765972 -12.1463479 25.41667327 -12.15199661 22.43531227 C-12.15870719 21.00755114 -12.17392461 19.5798032 -12.19788742 18.1522274 C-12.22955139 16.15160519 -12.22657313 14.15052612 -12.22216797 12.1496582 C-12.23025482 11.01207565 -12.23834167 9.8744931 -12.24667358 8.70243835 C-10.88242452 1.84650989 -6.49459292 0.02219404 0 0 Z " fill="#9BC763" transform="translate(175.638671875,284.35302734375)"/>
<path d="M0 0 C0.88929199 0.00974854 1.77858398 0.01949707 2.69482422 0.02954102 C13.58433131 0.32431112 20.03920481 3.44704339 27.92578125 11.01171875 C38.00064972 21.8174067 39.64642843 32.08921478 39.48046875 46.53515625 C39.4748626 47.97960466 39.47059733 49.42405883 39.46760559 50.86851501 C39.45623682 54.64151188 39.42684013 58.41415364 39.39349365 62.18701172 C39.36261923 66.04845376 39.34906341 69.90995406 39.33398438 73.77148438 C39.30196114 81.32700235 39.24926031 88.88215586 39.1875 96.4375 C32.5875 96.4375 25.9875 96.4375 19.1875 96.4375 C19.17291748 94.56046387 19.15833496 92.68342773 19.14331055 90.74951172 C19.0915804 84.53478876 19.02627338 78.32032335 18.95178509 72.10583305 C18.9071342 68.33945751 18.8678668 64.57318882 18.84106445 60.80664062 C18.81497823 57.1689476 18.77453919 53.53166689 18.72431374 49.89422989 C18.70768077 48.50928009 18.69614428 47.12425902 18.68988609 45.73922348 C18.68020698 43.79331826 18.65041844 41.847545 18.61987305 39.90185547 C18.60321846 38.24305862 18.60321846 38.24305862 18.58622742 36.55075073 C17.97117743 31.74846036 16.11984073 27.68483022 12.25 24.6875 C6.5199067 20.47763553 2.26300521 19.55442462 -4.8125 20.4375 C-10.37186829 22.38170252 -14.19894508 26.21039017 -16.8125 31.4375 C-16.93298151 33.49973352 -16.98990927 35.56578629 -17.01782227 37.63134766 C-17.03776749 38.93254547 -17.05771271 40.23374329 -17.07826233 41.57437134 C-17.09524673 43.0001005 -17.11212553 44.42583093 -17.12890625 45.8515625 C-17.14947521 47.30602613 -17.17047166 48.76048377 -17.19187927 50.2149353 C-17.24710604 54.04536088 -17.2965126 57.87584045 -17.34472656 61.70635986 C-17.3949372 65.6141847 -17.45062554 69.521931 -17.50585938 73.4296875 C-17.61344836 81.09889372 -17.71438552 88.76816564 -17.8125 96.4375 C-24.4125 96.4375 -31.0125 96.4375 -37.8125 96.4375 C-37.90321732 87.87448314 -37.97645417 79.31184595 -38.01974869 70.74847603 C-38.04053801 66.77126193 -38.06869481 62.79439638 -38.11425781 58.81738281 C-38.15802794 54.97237647 -38.18170204 51.12770333 -38.19200897 47.28246689 C-38.19934494 45.82256711 -38.21366906 44.36268357 -38.23542023 42.9029274 C-38.40610269 30.96279216 -36.589862 21.90629728 -28.8671875 12.54296875 C-20.61940406 4.09134275 -11.68170833 -0.14186974 0 0 Z " fill="#4094C7" transform="translate(301.8125,365.5625)"/>
<path d="M0 0 C12.87 0 25.74 0 39 0 C39 13.2 39 26.4 39 40 C26.13 40 13.26 40 0 40 C0 26.8 0 13.6 0 0 Z " fill="#FDFEFD" transform="translate(183,303)"/>
<path d="M0 0 C2.97 0 5.94 0 9 0 C12.68223428 6.95150771 15.47066868 14.14769913 18.25 21.5 C18.70890625 22.70398438 19.1678125 23.90796875 19.640625 25.1484375 C20.7641071 28.09757801 21.88378941 31.04810137 23 34 C25.04384595 30.93423108 26.21072805 28.12202394 27.53125 24.6875 C27.76783325 24.07737061 28.0044165 23.46724121 28.24816895 22.83862305 C29.00222385 20.89372603 29.75166845 18.94710576 30.5 17 C31.48546684 14.435885 32.47563621 11.8736615 33.46875 9.3125 C33.90638672 8.17425781 34.34402344 7.03601563 34.79492188 5.86328125 C36 3 36 3 38 0 C41.3 0 44.6 0 48 0 C48 17.16 48 34.32 48 52 C45.36 52 42.72 52 40 52 C39.67 39.79 39.34 27.58 39 15 C37.576875 18.63 36.15375 22.26 34.6875 26 C34.0236731 27.69189453 34.0236731 27.69189453 33.34643555 29.41796875 C31.61879202 33.82903968 29.90245483 38.24038897 28.26953125 42.6875 C27 46 27 46 26 47 C24.02 47 22.04 47 20 47 C15.71 35.78 11.42 24.56 7 13 C7 25.87 7 38.74 7 52 C4.69 52 2.38 52 0 52 C0 34.84 0 17.68 0 0 Z " fill="#4E9CCA" transform="translate(377,559)"/>
<path d="M0 0 C4.89559717 2.45862955 8.09782062 6.28002395 9.828125 11.38671875 C10.74929882 18.7803507 11.0440015 26.33821453 7.0390625 32.87109375 C4.38582981 36.19191402 1.83412161 38.05138655 -2.171875 39.38671875 C-7.73732991 39.87660728 -12.57868452 40.15486416 -17.671875 37.69921875 C-23.9401115 31.90109998 -26.21292887 27.02995315 -26.609375 18.51171875 C-26.50626439 12.57549364 -25.09949698 8.81596636 -21.171875 4.38671875 C-14.9768716 -1.23200526 -8.16667671 -2.30605799 0 0 Z " fill="#4A99C6" transform="translate(196.171875,572.61328125)"/>
<path d="M0 0 C26.7936772 0 26.7936772 0 33.46875 6.34765625 C36.30432771 11.25928193 35.67708855 16.51420095 35 22 C32.72491457 26.98768729 29.76845275 29.39156885 25 32 C22.0141103 32.46025748 19.1364928 32.38166906 16.125 32.25 C13.44375 32.1675 10.7625 32.085 8 32 C8 38.6 8 45.2 8 52 C5.36 52 2.72 52 0 52 C0 34.84 0 17.68 0 0 Z " fill="#4C99C9" transform="translate(484,559)"/>
<path d="M0 0 C2.8125 1.5 2.8125 1.5 5 3 C8.88886834 3.38445547 8.88886834 3.38445547 11.125 1.5 C15.37484563 -0.71731077 19.2982895 -0.55769877 24 0 C27.56424184 1.36502879 28.64532905 2.41194621 30.6105957 5.67041016 C32.18378705 9.44043012 32.34515734 12.07772732 32.29296875 16.1484375 C32.28872391 16.80582916 32.28447906 17.46322083 32.28010559 18.14053345 C32.26344977 20.21912391 32.2258262 22.29670774 32.1875 24.375 C32.17243605 25.79295464 32.15875065 27.21092464 32.14648438 28.62890625 C32.11359038 32.0862589 32.06190165 35.54303103 32 39 C29.36 39 26.72 39 24 39 C23.98541748 38.17274414 23.97083496 37.34548828 23.95581055 36.49316406 C23.8813414 32.74497119 23.7846754 28.99767003 23.6875 25.25 C23.65366211 23.29707031 23.65366211 23.29707031 23.61914062 21.3046875 C23.58369141 20.05429687 23.54824219 18.80390625 23.51171875 17.515625 C23.48553467 16.36352539 23.45935059 15.21142578 23.43237305 14.02441406 C22.96335256 10.74365416 22.34468195 9.31098301 20 7 C16.28601643 6.35408981 14.5715026 6.64990926 11.34887695 8.62402344 C8.31782278 11.69004767 8.35102907 13.2578679 8.29296875 17.515625 C8.24946289 19.39121094 8.24946289 19.39121094 8.20507812 21.3046875 C8.19927734 22.60664062 8.19347656 23.90859375 8.1875 25.25 C8.16236328 26.56742188 8.13722656 27.88484375 8.11132812 29.2421875 C8.0523987 32.49509156 8.01615903 35.74664795 8 39 C5.36 39 2.72 39 0 39 C-0.01458252 38.13721436 -0.02916504 37.27442871 -0.04418945 36.38549805 C-0.10527754 33.18150353 -0.17943549 29.97815375 -0.26245117 26.7746582 C-0.29568549 25.38870623 -0.32372226 24.00261939 -0.34643555 22.61645508 C-0.38000617 20.62293157 -0.43388 18.62978259 -0.48828125 16.63671875 C-0.51446533 15.43748779 -0.54064941 14.23825684 -0.56762695 13.00268555 C-0.77059975 10.03315709 -0.77059975 10.03315709 -2.31323242 8.07348633 C-4.16007539 6.66852897 -4.16007539 6.66852897 -7.5 7.1875 C-11.08709033 7.80370755 -11.08709033 7.80370755 -14 10 C-14.51184645 13.00414569 -14.51184645 13.00414569 -14.51171875 16.5390625 C-14.54716797 17.84101562 -14.58261719 19.14296875 -14.61914062 20.484375 C-14.64224231 21.86457809 -14.66502464 23.24478657 -14.6875 24.625 C-14.72066445 26.01305352 -14.7551533 27.40107607 -14.79101562 28.7890625 C-14.87374115 32.19262707 -14.94281257 35.5959259 -15 39 C-17.64 39 -20.28 39 -23 39 C-23 26.46 -23 13.92 -23 1 C-20.69 1 -18.38 1 -16 1 C-15.67 1.99 -15.34 2.98 -15 4 C-14.195625 3.34 -13.39125 2.68 -12.5625 2 C-8.56016566 -0.66506149 -4.66802156 -0.75207014 0 0 Z " fill="#4C9AC9" transform="translate(128,572)"/>
<path d="M0 0 C4.12505127 1.76787911 6.15115354 3.83679258 8.375 7.625 C10 12 10 12 10 22 C1.42 22 -7.16 22 -16 22 C-13.16490938 29.04349449 -13.16490938 29.04349449 -8 33 C-2.84552369 33.33799845 1.91876242 32.84687293 7 32 C7.33 33.65 7.66 35.3 8 37 C1.39878037 40.76209325 -4.54776776 41.04518194 -12 40 C-17.74285238 37.47175485 -20.68121726 33.78331694 -23 28 C-23.47700805 25.19700647 -23.57160863 22.46500931 -23.5625 19.625 C-23.56080811 18.87202637 -23.55911621 18.11905273 -23.55737305 17.34326172 C-23.38435198 12.01143531 -22.45420249 8.50466944 -18.80078125 4.4453125 C-12.69431727 -0.45575404 -7.67143337 -0.90558304 0 0 Z " fill="#4698C9" transform="translate(277,572)"/>
<path d="M0 0 C1.77697266 -0.02513672 1.77697266 -0.02513672 3.58984375 -0.05078125 C7.41938156 0.34983407 9.82356188 1.25135756 13.0625 3.3125 C13.5575 4.7975 13.5575 4.7975 14.0625 6.3125 C13.4025 7.3025 12.7425 8.2925 12.0625 9.3125 C11.134375 9.1475 10.20625 8.9825 9.25 8.8125 C5.93739401 8.35185131 2.65574388 8.15129798 -0.6875 8.0625 C-1.61046875 8.03671875 -2.5334375 8.0109375 -3.484375 7.984375 C-5.96264936 8.12692941 -5.96264936 8.12692941 -7.75390625 9.56640625 C-9.21647161 11.72405217 -9.25191305 12.91943464 -9.125 15.5 C-9.063125 16.758125 -9.00125 18.01625 -8.9375 19.3125 C-6.16699485 20.42803421 -3.39177356 21.51866332 -0.59765625 22.57421875 C13.2868346 28.07675856 13.2868346 28.07675856 16.0625 34.3125 C16.9641125 38.79704219 16.39840362 42.32345045 14.9375 46.625 C12.09216824 50.70330886 8.73825011 52.75391663 4.0625 54.3125 C-3.71675743 54.8265043 -10.98134332 55.13156641 -17.9375 51.3125 C-18.76171875 49.390625 -18.76171875 49.390625 -18.9375 47.3125 C-18.2775 46.3225 -17.6175 45.3325 -16.9375 44.3125 C-12.1875 45.1875 -12.1875 45.1875 -9.9375 46.3125 C-7.62828797 46.46129681 -5.3138236 46.53384584 -3 46.5625 C-1.13021484 46.60117187 -1.13021484 46.60117187 0.77734375 46.640625 C3.99071101 46.58442273 3.99071101 46.58442273 5.96875 45.01171875 C7.8961366 42.017386 7.60432789 39.74407664 7.0625 36.3125 C2.86107611 32.34448855 -2.69271402 30.69146609 -8.03515625 28.65625 C-11.86201166 26.8844623 -14.87725666 24.92549216 -17.21875 21.36328125 C-18.62513189 17.35050684 -18.67385729 13.48092255 -17.9375 9.3125 C-13.87909412 1.8879247 -8.18168462 0.02665044 0 0 Z " fill="#4A9ACB" transform="translate(455.9375,557.6875)"/>
<path d="M0 0 C2.41677109 0.74660964 3.90153401 1.56105189 6 3 C5.34 4.65 4.68 6.3 4 8 C3.360625 7.835 2.72125 7.67 2.0625 7.5 C-1.95080982 6.84476574 -5.94059212 6.71483498 -10 7 C-11.29633621 8.06645115 -11.29633621 8.06645115 -11.0625 10.5625 C-11.041875 11.366875 -11.02125 12.17125 -11 13 C-10.443125 13.23074219 -9.88625 13.46148438 -9.3125 13.69921875 C4.36220472 19.54330709 4.36220472 19.54330709 8 25 C8.51656697 28.87425226 8.156387 30.70460233 6.3125 34.1875 C3.22584349 37.94154171 0.76079567 39.77521757 -4.12109375 40.3984375 C-15.15769116 40.32044035 -15.15769116 40.32044035 -20 37 C-20 33 -20 33 -19 31 C-16.61435923 31.57584432 -14.33317216 32.22227595 -12 33 C-10.48233461 33.11632729 -8.9595654 33.17496239 -7.4375 33.1875 C-6.65246094 33.20167969 -5.86742187 33.21585938 -5.05859375 33.23046875 C-2.7756455 33.19167509 -2.7756455 33.19167509 -1 31 C-0.78876171 28.49921553 -0.78876171 28.49921553 -2 26 C-4.30350534 24.59346116 -6.35160487 23.53382328 -8.8125 22.5 C-13.64055777 20.43436218 -17.11239377 18.56313083 -20 14 C-20.60376753 9.77362727 -20.51401071 7.79760282 -18.1875 4.1875 C-12.75511783 -1.24488217 -7.3070288 -0.61787376 0 0 Z " fill="#4699CB" transform="translate(337,572)"/>
<path d="M0 0 C2.64 0 5.28 0 8 0 C11.53048312 9.27340234 14.95795174 18.551756 18 28 C19.66766273 24.87232126 20.83589061 21.72342849 21.9453125 18.359375 C22.29980469 17.28945313 22.65429688 16.21953125 23.01953125 15.1171875 C23.38433594 14.00601563 23.74914062 12.89484375 24.125 11.75 C24.49753906 10.62335937 24.87007812 9.49671875 25.25390625 8.3359375 C26.17198083 5.5581734 27.08723868 2.77951363 28 0 C30.64 0 33.28 0 36 0 C32.81578988 13.18374715 27.84990115 25.78250734 22 38 C19.36 38 16.72 38 14 38 C10.08985837 28.32172737 6.19121953 18.63931176 2.5 8.875 C2.24524902 8.20726562 1.99049805 7.53953125 1.72802734 6.8515625 C0 2.24026038 0 2.24026038 0 0 Z " fill="#4A99C8" transform="translate(212,573)"/>
<path d="M0 0 C3.58867947 0.07177359 4.13774084 0.39726919 7.125 2.8125 C10.28626847 6.8359326 10.45815822 9.77479419 10.5625 14.75 C10.61148438 16.06613281 10.66046875 17.38226562 10.7109375 18.73828125 C10.06946127 23.27169911 8.70466014 24.62271568 5.1875 27.4375 C2.29888291 28.88180855 0.39102299 28.81438506 -2.8125 28.4375 C-6.42537204 25.56362451 -8.71305558 22.93522717 -9.8125 18.4375 C-10.37640822 13.26689544 -10.42999544 9.59015816 -7.9375 4.9375 C-4.14492507 0.47564714 -4.14492507 0.47564714 0 0 Z " fill="#F7FBFB" transform="translate(187.8125,577.5625)"/>
<path d="M0 0 C2.64 0 5.28 0 8 0 C8 17.16 8 34.32 8 52 C5.36 52 2.72 52 0 52 C0 34.84 0 17.68 0 0 Z " fill="#4E9DCA" transform="translate(82,559)"/>
<path d="M0 0 C4.88765533 1.35768204 6.52591098 3.67034421 9 8 C10 11 10 11 10 21 C1.42 21 -7.16 21 -16 21 C-14.68 20.67 -13.36 20.34 -12 20 C-11.67 19.01 -11.34 18.02 -11 17 C-12.65 16.67 -14.3 16.34 -16 16 C-16.36223059 12.83048232 -16.09130947 11.1784685 -14.625 8.3125 C-11.27476435 5.36110193 -8.59788987 5.1241038 -4.2421875 4.65234375 C-1.81831184 4.21525593 -1.81831184 4.21525593 -0.6953125 1.94140625 C-0.46585937 1.30074219 -0.23640625 0.66007813 0 0 Z " fill="#50A0CD" transform="translate(277,573)"/>
<path d="M0 0 C2.3925 -0.0825 4.785 -0.165 7.25 -0.25 C7.99668945 -0.28641602 8.74337891 -0.32283203 9.51269531 -0.36035156 C12.8306803 -0.41568106 14.70784912 -0.20283087 17.453125 1.703125 C20.08188213 5.60643104 19.76092158 9.47213989 19 14 C16.80873184 17.09799981 15.58943664 17.80352112 12 19 C7.99616868 19.13399703 4.0072645 19.04308887 0 19 C0 12.73 0 6.46 0 0 Z " fill="#FAFDFC" transform="translate(492,566)"/>
<path d="M0 0 C2.64 0 5.28 0 8 0 C8 12.54 8 25.08 8 38 C5.36 38 2.72 38 0 38 C0 25.46 0 12.92 0 0 Z " fill="#4F9FC9" transform="translate(298,573)"/>
<path d="M0 0 C1.22496293 1.8374444 2.40435984 3.70762973 3.5 5.625 C4.78026262 8.1057227 4.78026262 8.1057227 7 9 C10.90908572 9.25494037 13.69124834 9.20583444 17 7 C17.33 6.34 17.66 5.68 18 5 C20.48412207 4.17195931 22.35220307 4 25 4 C25.66 4.66 26.32 5.32 27 6 C23.90968855 10.96657197 21.61351507 14.12882831 16 16 C10.43454509 16.48988853 5.59319048 16.76814541 0.5 14.3125 C-1.96694078 12.03057978 -4.03341271 9.72296701 -6 7 C-5.34 6.34 -4.68 5.68 -4 5 C-4 4.34 -4 3.68 -4 3 C-3.01 2.67 -2.02 2.34 -1 2 C-0.67 1.34 -0.34 0.68 0 0 Z " fill="#4DA0D0" transform="translate(178,596)"/>
<path d="M0 0 C0.33 0 0.66 0 1 0 C1.268125 1.134375 1.53625 2.26875 1.8125 3.4375 C2.204375 4.613125 2.59625 5.78875 3 7 C3.99 7.33 4.98 7.66 6 8 C4.35890576 11.82921989 2.45110424 13.46463618 -1.390625 15.23828125 C-8.19489723 17.22455832 -16.07984768 16.94569382 -22.8125 14.75 C-26 13 -26 13 -26.82421875 11.078125 C-27 9 -27 9 -25 6 C-20.25 6.875 -20.25 6.875 -18 8 C-15.69078797 8.14879681 -13.3763236 8.22134584 -11.0625 8.25 C-9.19271484 8.28867187 -9.19271484 8.28867187 -7.28515625 8.328125 C-4.06258853 8.27995085 -4.06258853 8.27995085 -2.1015625 6.65234375 C-0.66918363 4.50377544 -0.34283517 2.53698025 0 0 Z " fill="#51A1D0" transform="translate(464,596)"/>
<path d="M0 0 C2.4375 1.5625 2.4375 1.5625 4 4 C4.33 6.31 4.66 8.62 5 11 C-1.27 11 -7.54 11 -14 11 C-14 5.55123065 -13.55088954 4.7597654 -10 1 C-6.79468579 -0.6026571 -3.47781792 -0.48207377 0 0 Z " fill="#EEF7F8" transform="translate(275,578)"/>
<path d="M0 0 C0.825 0.66 1.65 1.32 2.5 2 C8.04424641 5.69181584 14.78994056 4.03500991 21 3 C21.33 4.65 21.66 6.3 22 8 C17.48150102 10.60072384 14.14121765 11.43183763 8.9375 11.4375 C7.75027344 11.45683594 6.56304687 11.47617187 5.33984375 11.49609375 C1.45649359 10.91926864 -0.19614427 9.67664867 -3 7 C-2.01 6.67 -1.02 6.34 0 6 C-0.2784375 4.7934375 -0.2784375 4.7934375 -0.5625 3.5625 C-0.706875 2.716875 -0.85125 1.87125 -1 1 C-0.67 0.67 -0.34 0.34 0 0 Z " fill="#50A1D1" transform="translate(263,601)"/>
<path d="M0 0 C2.38564077 0.57584432 4.66682784 1.22227595 7 2 C8.72795352 2.06802967 10.45835365 2.08495645 12.1875 2.0625 C13.08855469 2.05347656 13.98960937 2.04445313 14.91796875 2.03515625 C15.94857422 2.01775391 15.94857422 2.01775391 17 2 C17 3.65 17 5.3 17 7 C17.99 7.33 18.98 7.66 20 8 C15.32438862 10.33780569 7.731472 9.83745665 2.80859375 8.328125 C1.1875 7.5 1.1875 7.5 -1 6 C-1 2 -1 2 0 0 Z " fill="#4FA1D0" transform="translate(318,603)"/>
<path d="M0 0 C1.65 0 3.3 0 5 0 C5 4.62 5 9.24 5 14 C3.68 14.33 2.36 14.66 1 15 C1.33 16.32 1.66 17.64 2 19 C1.01 18.67 0.02 18.34 -1 18 C-2.48520725 15.02958551 -2.1705822 12.30235553 -2.1875 9 C-2.20167969 7.741875 -2.21585938 6.48375 -2.23046875 5.1875 C-2 2 -2 2 0 0 Z " fill="#3F93C3" transform="translate(173,584)"/>
<path d="M0 0 C1.77444057 0.59348861 3.54445553 1.20022001 5.3125 1.8125 C6.29863281 2.14894531 7.28476562 2.48539063 8.30078125 2.83203125 C10.87129759 3.94430967 12.22191977 4.88208191 14 7 C13.34 7 12.68 7 12 7 C11.34 8.32 10.68 9.64 10 11 C6.44842089 11 4.51236245 10.00581762 1.3125 8.5 C-0.17830078 7.80390625 -0.17830078 7.80390625 -1.69921875 7.09375 C-2.83810547 6.55234375 -2.83810547 6.55234375 -4 6 C-2.68 4.02 -1.36 2.04 0 0 Z " fill="#55A0CE" transform="translate(328,587)"/>
<path d="M0 0 C2.64 0 5.28 0 8 0 C6.45392638 4.94743557 3.73004417 9.40129541 0 13 C-3.375 13.5 -3.375 13.5 -6 13 C-4.58707905 8.1725201 -2.57025846 4.2837641 0 0 Z " fill="#499ACC" transform="translate(191,554)"/>
<path d="M0 0 C3.625 0.375 3.625 0.375 7 1 C7.625 3.875 7.625 3.875 8 7 C6 9 6 9 3 9.25 C0 9 0 9 -2 7 C-2.25 4.5 -2.25 4.5 -2 2 C-1.34 1.34 -0.68 0.68 0 0 Z " fill="#53A0D0" transform="translate(299,556)"/>
<path d="M0 0 C0.66 0 1.32 0 2 0 C2 18.48 2 36.96 2 56 C1.67 56 1.34 56 1 56 C0.9845388 55.03280281 0.9845388 55.03280281 0.96876526 54.04606628 C0.86074573 47.34660609 0.74614392 40.64728163 0.62768555 33.94799805 C0.58432212 31.44639928 0.54264809 28.94477064 0.50268555 26.44311523 C0.44501729 22.85130808 0.38131267 19.25965148 0.31640625 15.66796875 C0.29969376 14.54601608 0.28298126 13.42406342 0.26576233 12.26811218 C0.24581711 11.22725967 0.22587189 10.18640717 0.20532227 9.11401367 C0.18977798 8.19690109 0.1742337 7.27978851 0.15821838 6.33488464 C0.087709 3.84418392 0.087709 3.84418392 -1 1 C-0.67 0.67 -0.34 0.34 0 0 Z " fill="#338AC0" transform="translate(126,224)"/>
<path d="M0 0 C0.66 0 1.32 0 2 0 C2.8512999 4.06732175 2.89625399 6.96685703 2 11 C2.33 11.66 2.66 12.32 3 13 C1.68 12.67 0.36 12.34 -1 12 C-1.92470553 7.28400182 -2.22923777 4.32734391 0 0 Z " fill="#3B95C7" transform="translate(226,597)"/>
<path d="M0 0 C0.33 0 0.66 0 1 0 C1.3125 2.3125 1.3125 2.3125 1 5 C-0.65532623 6.01866229 -2.32260138 7.01810813 -4 8 C-4.88658466 10.59122743 -4.88658466 10.59122743 -5 13 C-5.66 13 -6.32 13 -7 13 C-6.71640113 11.5608866 -6.42278601 10.12374482 -6.125 8.6875 C-5.96257812 7.88699219 -5.80015625 7.08648438 -5.6328125 6.26171875 C-5 4 -5 4 -3 1 C-2.34 1 -1.68 1 -1 1 C-0.67 0.67 -0.34 0.34 0 0 Z " fill="#549EC8" transform="translate(242,578)"/>
<path d="M0 0 C0 0.33 0 0.66 0 1 C-0.67546875 1.10957031 -1.3509375 1.21914063 -2.046875 1.33203125 C-2.93890625 1.49058594 -3.8309375 1.64914062 -4.75 1.8125 C-5.63171875 1.96332031 -6.5134375 2.11414063 -7.421875 2.26953125 C-10.07333024 2.84385678 -10.07333024 2.84385678 -12.078125 4.63671875 C-14 6 -14 6 -16.25 5.6875 C-16.8275 5.460625 -17.405 5.23375 -18 5 C-12.02597761 0.32758025 -7.51827663 -0.69328371 0 0 Z " fill="#5AA3CC" transform="translate(152,572)"/>
<path d="M0 0 C0.99 0.33 1.98 0.66 3 1 C2.67 1.99 2.34 2.98 2 4 C2.66 4.33 3.32 4.66 4 5 C4 5.99 4 6.98 4 8 C1.525 7.01 1.525 7.01 -1 6 C-1 2 -1 2 0 0 Z " fill="#5DAED1" transform="translate(318,603)"/>
<path d="M0 0 C0 3 0 3 -1.9375 5.375 C-4.05832277 8.07422898 -4.61677737 9.64680201 -5 13 C-5.33 13 -5.66 13 -6 13 C-6.32470459 8.86001651 -6.4304413 6.66000999 -4.125 3.125 C-2 1 -2 1 0 0 Z " fill="#61AACD" transform="translate(323,573)"/>
<path d="M0 0 C2.0625 0.4375 2.0625 0.4375 4 1 C3.67 2.65 3.34 4.3 3 6 C1.68 6 0.36 6 -1 6 C-1.042721 4.33388095 -1.04063832 2.66617115 -1 1 C-0.67 0.67 -0.34 0.34 0 0 Z " fill="#4A9DCB" transform="translate(298,557)"/>
<path d="M0 0 C0.66 0.33 1.32 0.66 2 1 C0.95125002 3.62187494 0.35068687 4.79371361 -2.125 6.25 C-2.74375 6.4975 -3.3625 6.745 -4 7 C-2.92598892 4.08482708 -2.22189824 2.22189824 0 0 Z " fill="#5AA6D0" transform="translate(468,603)"/>
<path d="M0 0 C0.33 0 0.66 0 1 0 C1.36923077 6.52307692 1.36923077 6.52307692 -0.5 8.9375 C-0.995 9.288125 -1.49 9.63875 -2 10 C-2.66 9.34 -3.32 8.68 -4 8 C-3.525625 7.608125 -3.05125 7.21625 -2.5625 6.8125 C-0.64820367 4.59191626 -0.38733012 2.86624291 0 0 Z " fill="#3D97C9" transform="translate(343,598)"/>
<path d="M0 0 C0.66 0 1.32 0 2 0 C1.67 4.62 1.34 9.24 1 14 C0.67 14 0.34 14 0 14 C-0.19393875 11.85473901 -0.37998676 9.70876323 -0.5625 7.5625 C-0.71912109 5.77005859 -0.71912109 5.77005859 -0.87890625 3.94140625 C-0.91886719 2.97074219 -0.95882812 2.00007812 -1 1 C-0.67 0.67 -0.34 0.34 0 0 Z " fill="#69ACCE" transform="translate(198,582)"/>
</svg>
